<svg width="115" height="32" viewBox="0 0 115 32" fill="none" xmlns="http://www.w3.org/2000/svg">
<path d="M13.5408 22.4494C13.543 22.4502 13.5454 22.4492 13.5461 22.447C13.9206 21.4414 14.8898 20.725 16.0264 20.725C17.1555 20.725 18.1194 21.432 18.4992 22.4272C18.5009 22.4317 18.506 22.434 18.5106 22.4322C18.515 22.4304 18.52 22.4326 18.5219 22.437L20.829 28.0888C20.9829 28.4215 21.0688 28.7922 21.0688 29.1829C21.0688 30.5463 20.023 31.6656 18.6894 31.7832C17.9029 31.9127 17.0973 31.9864 16.2768 32C16.1386 32.0022 16.0264 31.8901 16.0264 31.752V29.4323C16.0264 29.2945 16.1381 29.1829 16.2759 29.1802C16.6352 29.173 16.9909 29.1518 17.3427 29.1172C17.5066 29.101 17.6063 28.9312 17.5441 28.7787L16.2631 25.6406C16.1785 25.4334 15.8848 25.4333 15.8001 25.6406L13.3686 31.5956C13.3245 31.7037 13.2114 31.767 13.0964 31.7465C12.1399 31.5759 11.2126 31.3225 10.3224 30.9941C10.1912 30.9458 10.1276 30.798 10.1804 30.6686L13.5356 22.4516C13.5364 22.4496 13.5388 22.4486 13.5408 22.4494Z" fill="#375DFB"/>
<path d="M9.10927 17.1193C10.1752 16.9315 11.2937 17.4064 11.8663 18.3851C12.4352 19.3573 12.2982 20.5405 11.6123 21.357C11.6106 21.3591 11.6109 21.3622 11.6131 21.3638C11.6152 21.3655 11.6155 21.3685 11.6139 21.3706L7.75267 26.2367C7.54543 26.5075 7.28093 26.7427 6.96437 26.923C5.79129 27.5913 4.31512 27.2724 3.52398 26.2274C3.00807 25.6132 2.53262 24.9533 2.10381 24.2494C2.02829 24.1254 2.07185 23.965 2.19881 23.8927L4.21404 22.7446C4.34068 22.6725 4.50238 22.7153 4.57818 22.8387C4.75871 23.1325 4.94912 23.417 5.14876 23.6919C5.25013 23.8315 5.45815 23.8332 5.56544 23.698L7.64656 21.0752C7.79372 20.8898 7.637 20.6219 7.40065 20.6549L1.00799 21.5476C0.884734 21.5648 0.765718 21.4952 0.723743 21.3795C0.398994 20.4849 0.159898 19.5741 0.00364486 18.6576C-0.0208104 18.5141 0.0804983 18.3802 0.226457 18.3598L9.10927 17.1193Z" fill="#375DFB"/>
<path d="M11.5721 10.6716C11.572 10.6717 11.572 10.6719 11.5721 10.672C12.2698 11.489 12.4124 12.6814 11.8398 13.6601C11.271 14.6323 10.164 15.1069 9.10448 14.929C9.10178 14.9286 9.09923 14.9304 9.09884 14.9331C9.09846 14.9357 9.09601 14.9375 9.09335 14.9371L2.89187 14.0706C2.55061 14.0289 2.21201 13.9204 1.89547 13.7401C0.722416 13.0718 0.264259 11.6509 0.785751 10.4524C1.06691 9.70435 1.40835 8.96809 1.81172 8.24969C1.88276 8.12315 2.04531 8.08019 2.17227 8.15252L4.1875 9.3006C4.31414 9.37275 4.35743 9.53233 4.28704 9.6588C4.1194 9.95999 3.96495 10.2649 3.82348 10.573C3.75165 10.7294 3.85416 10.9081 4.02648 10.9321L7.3689 11.3992C7.60525 11.4322 7.762 11.1643 7.61485 10.9789L3.63504 5.96235C3.5583 5.86563 3.55991 5.7291 3.64042 5.63541C4.26324 4.91057 4.94303 4.25086 5.66929 3.65908C5.78296 3.56646 5.9512 3.58604 6.04207 3.70058L11.5722 10.6712C11.5723 10.6713 11.5722 10.6715 11.5721 10.6716Z" fill="#375DFB"/>
<path d="M18.4591 9.55062C18.4569 9.54978 18.4545 9.55085 18.4537 9.55299C18.0793 10.5586 17.1101 11.275 15.9735 11.275C14.8444 11.275 13.8805 10.568 13.5007 9.57283C13.499 9.56828 13.4939 9.566 13.4893 9.56781C13.4849 9.56957 13.4799 9.56743 13.478 9.563L11.1709 3.91127C11.017 3.57847 10.9311 3.20779 10.9311 2.81706C10.9311 1.45362 11.9769 0.334312 13.3106 0.216772C14.0971 0.0872546 14.9027 0.0135854 15.7231 3.4249e-05C15.8613 -0.00224851 15.9735 0.109876 15.9735 0.248023V2.56771C15.9735 2.70552 15.8618 2.81707 15.724 2.81982C15.3647 2.827 15.009 2.84818 14.6572 2.88281C14.4933 2.89896 14.3936 3.06885 14.4558 3.22127L15.7368 6.35935C15.8214 6.56664 16.1151 6.56665 16.1998 6.35937L18.6313 0.404389C18.6754 0.296342 18.7885 0.233004 18.9035 0.253506C19.86 0.424111 20.7873 0.677489 21.6775 1.00585C21.8087 1.05425 21.8723 1.202 21.8195 1.33141L18.4643 9.54838C18.4635 9.55045 18.4611 9.55145 18.4591 9.55062Z" fill="#375DFB"/>
<path d="M22.8903 14.8804C22.8903 14.8803 22.8902 14.8802 22.89 14.8802C21.8241 15.068 20.7062 14.5936 20.1336 13.6149C19.5648 12.6427 19.7017 11.4595 20.3876 10.643C20.3894 10.6409 20.389 10.6378 20.3869 10.6362C20.3848 10.6345 20.3844 10.6315 20.3861 10.6294L24.2473 5.76318C24.4546 5.49241 24.719 5.25729 25.0356 5.07696C26.2086 4.40866 27.6848 4.72761 28.4759 5.77255C28.9919 6.38682 29.4673 7.04672 29.8961 7.7506C29.9717 7.87458 29.9281 8.03497 29.8011 8.1073L27.7859 9.25537C27.6593 9.32752 27.4976 9.28473 27.4218 9.16133C27.2412 8.86749 27.0508 8.58302 26.8512 8.3081C26.7498 8.16851 26.5418 8.16679 26.4345 8.30201L24.3534 10.9248C24.2062 11.1102 24.3629 11.3781 24.5993 11.3451L30.992 10.4524C31.1152 10.4352 31.2342 10.5048 31.2762 10.6205C31.6009 11.5151 31.84 12.4259 31.9963 13.3424C32.0208 13.4859 31.9194 13.6198 31.7735 13.6402L22.8907 14.8807C22.8905 14.8807 22.8904 14.8806 22.8903 14.8804Z" fill="#375DFB"/>
<path d="M20.4278 21.3284C20.4279 21.3283 20.428 21.3282 20.4279 21.328C19.7301 20.5111 19.5875 19.3186 20.1601 18.3399C20.729 17.3677 21.8359 16.8931 22.8954 17.071C22.8981 17.0715 22.9007 17.0696 22.9011 17.067C22.9015 17.0643 22.9039 17.0625 22.9066 17.0629L29.1081 17.9294C29.4493 17.9711 29.7879 18.0796 30.1045 18.2599C31.2776 18.9282 31.7357 20.3492 31.2141 21.5478C30.933 22.2958 30.5916 23.032 30.1882 23.7503C30.1172 23.8769 29.9546 23.9198 29.8277 23.8475L27.8124 22.6994C27.6858 22.6273 27.6425 22.4677 27.7129 22.3412C27.8805 22.04 28.035 21.7351 28.1764 21.427C28.2483 21.2706 28.1458 21.092 27.9734 21.0679L24.631 20.6008C24.3947 20.5678 24.2379 20.8357 24.3851 21.0212L28.3649 26.0377C28.4416 26.1344 28.44 26.2709 28.3595 26.3646C27.7367 27.0895 27.0569 27.7492 26.3306 28.341C26.217 28.4336 26.0487 28.414 25.9579 28.2994L20.4278 21.3288C20.4277 21.3287 20.4277 21.3285 20.4278 21.3284Z" fill="#375DFB"/>
<ellipse cx="16.036" cy="15.9145" rx="3.04912" ry="3.00873" fill="#FAA247"/>
<path d="M41.7216 25V7.54545H48.267C49.6079 7.54545 50.7329 7.79545 51.642 8.29545C52.5568 8.79545 53.2472 9.48295 53.7131 10.358C54.1847 11.2273 54.4204 12.2159 54.4204 13.3239C54.4204 14.4432 54.1847 15.4375 53.7131 16.3068C53.2415 17.1761 52.5454 17.8608 51.625 18.3608C50.7045 18.8551 49.571 19.1023 48.2244 19.1023H43.8864V16.5028H47.7983C48.5824 16.5028 49.2244 16.3665 49.7244 16.0938C50.2244 15.821 50.5937 15.446 50.8324 14.9688C51.0767 14.4915 51.1989 13.9432 51.1989 13.3239C51.1989 12.7045 51.0767 12.1591 50.8324 11.6875C50.5937 11.2159 50.2216 10.8494 49.7159 10.5881C49.2159 10.321 48.571 10.1875 47.7812 10.1875H44.8835V25H41.7216ZM57.0305 25V11.9091H60.022V14.0909H60.1584C60.397 13.3352 60.8061 12.7528 61.3856 12.3438C61.9709 11.929 62.6385 11.7216 63.3885 11.7216C63.5589 11.7216 63.7493 11.7301 63.9595 11.7472C64.1754 11.7585 64.3544 11.7784 64.4964 11.8068V14.6449C64.3658 14.5994 64.1584 14.5597 63.8743 14.5256C63.5959 14.4858 63.326 14.4659 63.0646 14.4659C62.5021 14.4659 61.9964 14.5881 61.5476 14.8324C61.1044 15.071 60.755 15.4034 60.4993 15.8295C60.2436 16.2557 60.1158 16.7472 60.1158 17.304V25H57.0305ZM71.7173 25.2557C70.4389 25.2557 69.331 24.9744 68.3935 24.4119C67.456 23.8494 66.7287 23.0625 66.2116 22.0511C65.7003 21.0398 65.4446 19.858 65.4446 18.5057C65.4446 17.1534 65.7003 15.9687 66.2116 14.9517C66.7287 13.9347 67.456 13.1449 68.3935 12.5824C69.331 12.0199 70.4389 11.7386 71.7173 11.7386C72.9957 11.7386 74.1037 12.0199 75.0412 12.5824C75.9787 13.1449 76.7031 13.9347 77.2145 14.9517C77.7315 15.9687 77.99 17.1534 77.99 18.5057C77.99 19.858 77.7315 21.0398 77.2145 22.0511C76.7031 23.0625 75.9787 23.8494 75.0412 24.4119C74.1037 24.9744 72.9957 25.2557 71.7173 25.2557ZM71.7344 22.7841C72.4275 22.7841 73.0071 22.5937 73.473 22.2131C73.9389 21.8267 74.2855 21.3097 74.5128 20.6619C74.7457 20.0142 74.8622 19.2926 74.8622 18.4972C74.8622 17.696 74.7457 16.9716 74.5128 16.3239C74.2855 15.6705 73.9389 15.1506 73.473 14.7642C73.0071 14.3778 72.4275 14.1847 71.7344 14.1847C71.0241 14.1847 70.4332 14.3778 69.9616 14.7642C69.4957 15.1506 69.1463 15.6705 68.9133 16.3239C68.6861 16.9716 68.5724 17.696 68.5724 18.4972C68.5724 19.2926 68.6861 20.0142 68.9133 20.6619C69.1463 21.3097 69.4957 21.8267 69.9616 22.2131C70.4332 22.5937 71.0241 22.7841 71.7344 22.7841ZM83.6939 7.54545V25H80.6087V7.54545H83.6939ZM92.5767 25.2557C91.2983 25.2557 90.1903 24.9744 89.2528 24.4119C88.3153 23.8494 87.5881 23.0625 87.071 22.0511C86.5597 21.0398 86.304 19.858 86.304 18.5057C86.304 17.1534 86.5597 15.9687 87.071 14.9517C87.5881 13.9347 88.3153 13.1449 89.2528 12.5824C90.1903 12.0199 91.2983 11.7386 92.5767 11.7386C93.8551 11.7386 94.9631 12.0199 95.9006 12.5824C96.8381 13.1449 97.5625 13.9347 98.0739 14.9517C98.5909 15.9687 98.8494 17.1534 98.8494 18.5057C98.8494 19.858 98.5909 21.0398 98.0739 22.0511C97.5625 23.0625 96.8381 23.8494 95.9006 24.4119C94.9631 24.9744 93.8551 25.2557 92.5767 25.2557ZM92.5937 22.7841C93.2869 22.7841 93.8665 22.5937 94.3324 22.2131C94.7983 21.8267 95.1449 21.3097 95.3722 20.6619C95.6051 20.0142 95.7216 19.2926 95.7216 18.4972C95.7216 17.696 95.6051 16.9716 95.3722 16.3239C95.1449 15.6705 94.7983 15.1506 94.3324 14.7642C93.8665 14.3778 93.2869 14.1847 92.5937 14.1847C91.8835 14.1847 91.2926 14.3778 90.821 14.7642C90.3551 15.1506 90.0057 15.6705 89.7727 16.3239C89.5454 16.9716 89.4318 17.696 89.4318 18.4972C89.4318 19.2926 89.5454 20.0142 89.7727 20.6619C90.0057 21.3097 90.3551 21.8267 90.821 22.2131C91.2926 22.5937 91.8835 22.7841 92.5937 22.7841ZM107.161 30.1818C106.053 30.1818 105.102 30.0313 104.306 29.7301C103.511 29.4347 102.871 29.0369 102.388 28.5369C101.906 28.0369 101.57 27.483 101.383 26.875L104.161 26.2017C104.286 26.4574 104.468 26.7102 104.707 26.9602C104.945 27.2159 105.266 27.4261 105.67 27.5909C106.079 27.7614 106.593 27.8466 107.212 27.8466C108.087 27.8466 108.812 27.6335 109.386 27.2074C109.96 26.7869 110.246 26.0938 110.246 25.1278V22.6477H110.093C109.934 22.9659 109.701 23.2926 109.394 23.6278C109.093 23.9631 108.692 24.2443 108.192 24.4716C107.698 24.6989 107.076 24.8125 106.326 24.8125C105.32 24.8125 104.408 24.5767 103.59 24.1051C102.778 23.6278 102.13 22.9176 101.647 21.9744C101.17 21.0256 100.931 19.8381 100.931 18.4119C100.931 16.9744 101.17 15.7614 101.647 14.7727C102.13 13.7784 102.781 13.0256 103.599 12.5142C104.417 11.9972 105.329 11.7386 106.335 11.7386C107.102 11.7386 107.732 11.8693 108.227 12.1307C108.727 12.3864 109.124 12.696 109.42 13.0597C109.715 13.4176 109.94 13.7557 110.093 14.0739H110.263V11.9091H113.306V25.2131C113.306 26.3324 113.039 27.2585 112.505 27.9915C111.971 28.7244 111.241 29.2727 110.315 29.6364C109.388 30 108.337 30.1818 107.161 30.1818ZM107.187 22.392C107.84 22.392 108.397 22.233 108.857 21.9148C109.317 21.5966 109.667 21.1392 109.906 20.5426C110.144 19.946 110.263 19.2301 110.263 18.3949C110.263 17.571 110.144 16.8494 109.906 16.2301C109.673 15.6108 109.326 15.1307 108.866 14.7898C108.411 14.4432 107.852 14.2699 107.187 14.2699C106.499 14.2699 105.925 14.4489 105.465 14.8068C105.005 15.1648 104.658 15.6562 104.425 16.2812C104.192 16.9006 104.076 17.6051 104.076 18.3949C104.076 19.196 104.192 19.8977 104.425 20.5C104.664 21.0966 105.013 21.5625 105.474 21.8977C105.94 22.2273 106.511 22.392 107.187 22.392Z" fill="black" fill-opacity="0.878431"/>
</svg>
